<svg width="177" height="44" viewBox="0 0 177 44" fill="none" xmlns="http://www.w3.org/2000/svg">
<g id="Group 312">
<path id="ic-facebook" d="M18.9829 34.6241V24.8809H16.407V21.3741H18.9829V18.3741C18.9829 16.0191 20.505 13.856 24.011 13.856C24.836 13.8536 25.6604 13.8996 26.48 13.9933L26.397 17.2682C26.397 17.2682 25.326 17.2569 24.158 17.2569C22.894 17.2569 22.6909 17.8402 22.6909 18.8082V21.3702H26.497L26.331 24.877H22.6909V34.6202L18.9829 34.6241Z" fill="#C2C2C2"/>
<path id="ic-twitter" d="M101.228 14.8595C100.454 15.1972 99.6346 15.4171 98.796 15.5123C99.6784 14.9888 100.339 14.1608 100.654 13.1842C99.826 13.6768 98.9189 14.0223 97.973 14.2052C97.3931 13.587 96.6408 13.1575 95.8138 12.9723C94.9867 12.787 94.1231 12.8548 93.335 13.1666C92.5469 13.4784 91.8707 14.0199 91.3942 14.7208C90.9178 15.4218 90.663 16.2497 90.663 17.0973C90.6639 17.4228 90.6973 17.7477 90.763 18.0665C89.0823 17.9808 87.4384 17.5423 85.9379 16.7804C84.4374 16.0184 83.1139 14.9496 82.053 13.6432C81.511 14.575 81.3444 15.6783 81.5875 16.7286C81.8305 17.7789 82.4648 18.6974 83.361 19.2965C82.6909 19.2704 82.0365 19.0863 81.451 18.7594V18.8111C81.4498 19.787 81.7863 20.7334 82.4035 21.4894C83.0207 22.2453 83.8805 22.7641 84.837 22.9581C84.4738 23.0525 84.1003 23.1006 83.725 23.1012C83.4572 23.0988 83.1899 23.0777 82.925 23.0382C83.1958 23.8771 83.7218 24.6104 84.4296 25.1358C85.1374 25.6613 85.9916 25.9528 86.873 25.9693C85.3773 27.143 83.5302 27.7793 81.629 27.7755C81.2879 27.7781 80.947 27.7605 80.608 27.7233C82.4253 28.8858 84.5218 29.5382 86.6778 29.6119C88.8338 29.6857 90.97 29.1783 92.8625 28.1427C94.755 27.1071 96.334 25.5813 97.4343 23.7257C98.5345 21.87 99.1154 19.7526 99.116 17.5953C99.116 17.4123 99.1159 17.2305 99.1039 17.0455C99.9301 16.4418 100.648 15.7027 101.228 14.8595Z" fill="#C2C2C2"/>
<path id="ic-instagram" d="M156.465 32.0421H154.628C153.771 32.0421 152.774 32.0421 151.796 31.9821C150.383 32.014 149.014 31.4872 147.986 30.5161C147.014 29.489 146.487 28.1198 146.519 26.7061C146.459 25.6091 146.459 24.4951 146.459 23.4201C146.459 23.2621 146.459 23.1091 146.459 22.9561C146.459 22.8031 146.459 22.6491 146.459 22.4951C146.459 21.4161 146.459 20.3041 146.519 19.2051C146.485 17.7913 147.012 16.4216 147.985 15.3951C149.012 14.4228 150.381 13.8952 151.795 13.9271C152.77 13.8691 153.759 13.8691 154.606 13.8691H156.483C157.332 13.8691 158.319 13.8691 159.296 13.9271C160.71 13.8958 162.079 14.4233 163.106 15.3951C164.077 16.4225 164.604 17.7916 164.572 19.2051C164.634 20.3051 164.633 21.4141 164.632 22.4901C164.632 22.6491 164.632 22.8021 164.632 22.9561C164.632 23.1101 164.632 23.2811 164.632 23.4441V23.4601C164.632 24.5231 164.632 25.6211 164.572 26.7061C164.603 28.1195 164.076 29.4882 163.106 30.5161C162.078 31.4872 160.709 32.014 159.296 31.9821C158.32 32.0371 157.323 32.0421 156.465 32.0421ZM155.545 18.2981C154.624 18.2981 153.723 18.5713 152.957 19.0832C152.191 19.595 151.594 20.3225 151.242 21.1736C150.889 22.0247 150.797 22.9613 150.977 23.8649C151.156 24.7684 151.6 25.5984 152.251 26.2498C152.903 26.9013 153.733 27.3449 154.636 27.5246C155.54 27.7044 156.476 27.6121 157.328 27.2596C158.179 26.907 158.906 26.31 159.418 25.544C159.93 24.778 160.203 23.8774 160.203 22.9561C160.201 21.7212 159.71 20.5374 158.837 19.6642C157.964 18.791 156.78 18.2997 155.545 18.2981ZM160.395 17.0131C160.106 17.0131 159.829 17.1279 159.625 17.3321C159.421 17.5363 159.306 17.8133 159.306 18.1021C159.306 18.391 159.421 18.668 159.625 18.8722C159.829 19.0764 160.106 19.1911 160.395 19.1911C160.538 19.1906 160.68 19.1624 160.813 19.1081C160.945 19.0524 161.065 18.9712 161.166 18.8691C161.268 18.7685 161.348 18.6485 161.403 18.5161C161.471 18.3506 161.497 18.1709 161.478 17.993C161.46 17.8151 161.399 17.6443 161.3 17.4956C161.2 17.3469 161.066 17.2249 160.908 17.1403C160.751 17.0556 160.575 17.011 160.396 17.0101L160.395 17.0131ZM155.545 25.9871C154.945 25.9869 154.359 25.8088 153.86 25.4754C153.361 25.1419 152.973 24.668 152.743 24.1137C152.514 23.5593 152.454 22.9494 152.572 22.3611C152.689 21.7727 152.978 21.2324 153.402 20.8084C153.827 20.3844 154.367 20.0958 154.956 19.9791C155.544 19.8624 156.154 19.9228 156.708 20.1527C157.262 20.3826 157.736 20.7716 158.069 21.2707C158.402 21.7697 158.579 22.3562 158.579 22.9561C158.578 23.7601 158.258 24.5308 157.689 25.099C157.12 25.6672 156.349 25.9866 155.545 25.9871Z" fill="#C2C2C2"/>
<g id="Ellipse 14">
<path id="Vector" d="M21.5 43.5C33.098 43.5 42.5 34.098 42.5 22.5C42.5 10.902 33.098 1.5 21.5 1.5C9.90202 1.5 0.5 10.902 0.5 22.5C0.5 34.098 9.90202 43.5 21.5 43.5Z" stroke="#A4A4A4"/>
</g>
<g id="Ellipse 13">
<path id="Vector_2" d="M89.5 42.5C101.098 42.5 110.5 33.098 110.5 21.5C110.5 9.90202 101.098 0.5 89.5 0.5C77.902 0.5 68.5 9.90202 68.5 21.5C68.5 33.098 77.902 42.5 89.5 42.5Z" stroke="#A4A4A4"/>
</g>
<g id="Ellipse 12">
<path id="Vector_3" d="M155.5 43.5C167.098 43.5 176.5 34.098 176.5 22.5C176.5 10.902 167.098 1.5 155.5 1.5C143.902 1.5 134.5 10.902 134.5 22.5C134.5 34.098 143.902 43.5 155.5 43.5Z" stroke="#A4A4A4"/>
</g>
</g>
</svg>
